<?xml version="1.0" encoding="UTF-8"?>
<svg xmlns="http://www.w3.org/2000/svg" version="1.1" xmlns:inkscape="http://www.inkscape.org/namespaces/inkscape" xmlns:sodipodi="http://sodipodi.sourceforge.net/DTD/sodipodi-0.dtd" xmlns:svg="http://www.w3.org/2000/svg" xmlns:xlink="http://www.w3.org/1999/xlink" viewBox="0 0 600 600">
  <defs>
    <style>
      .cls-1 {
        fill: #ffc0c6;
      }

      .cls-1, .cls-2, .cls-3, .cls-4, .cls-5, .cls-6, .cls-7, .cls-8, .cls-9, .cls-10, .cls-11, .cls-12, .cls-13 {
        stroke-width: 0px;
      }

      .cls-2 {
        fill: #000;
      }

      .cls-2, .cls-5, .cls-7 {
        isolation: isolate;
      }

      .cls-3 {
        fill: silver;
      }

      .cls-4 {
        fill: #bcbcbc;
      }

      .cls-5, .cls-13 {
        fill: #e2000f;
      }

      .cls-6 {
        fill: #ffe6ea;
      }

      .cls-7 {
        fill: url(#Degradado_sin_nombre_7);
      }

      .cls-8 {
        fill: #333;
      }

      .cls-9 {
        fill: #cccbcb;
      }

      .cls-10 {
        fill: #fff;
      }

      .cls-11 {
        fill: #aeafae;
      }

      .cls-12 {
        fill: #6d6d6d;
      }
    </style>
    <linearGradient id="Degradado_sin_nombre_7" data-name="Degradado sin nombre 7" x1="-231.2" y1="1305.1" x2="-231.2" y2="1305.1" gradientTransform="translate(5943.2 33033.7) scale(26 -26)" gradientUnits="userSpaceOnUse">
      <stop offset="0" stop-color="#0071ff"/>
      <stop offset="1" stop-color="#00bfe1"/>
    </linearGradient>
  </defs>
  <g id="svg11" inkscape:export-filename="216333102-4d10c195-be66-4fa0-97ca-70a71756b25e.png" inkscape:export-xdpi="3733.2917" inkscape:export-ydpi="3733.2917" inkscape:version="1.2.2 (b0a84865, 2022-12-01)" sodipodi:docname="design.svg">
    <sodipodi:namedview id="namedview13" bordercolor="#000000" borderopacity="0.25" inkscape:current-layer="svg11" inkscape:cx="11.119001" inkscape:cy="90.307984" inkscape:deskcolor="#d1d1d1" inkscape:pagecheckerboard="0" inkscape:pageopacity="0.0" inkscape:showpageshadow="2" inkscape:window-height="847" inkscape:window-maximized="1" inkscape:window-width="1440" inkscape:window-x="0" inkscape:window-y="25" inkscape:zoom="1.8436908" pagecolor="#ffffff" showgrid="false" showguides="true"/>
    <g id="g9521">
      <g id="g3226">
        <path id="path422" class="cls-5" d="M47.4,76.9h-22c-2.8,0-5-2.2-5-5v-22c0-2.8,2.2-5,5-5h22c2.8,0,5,2.2,5,5v22c0,2.8-2.2,5-5,5Z"/>
      </g>
      <g>
        <path class="cls-10" d="M32.6,70.6c-1.1-.7-2.2-1.9-3-3.3-1.9-3.2-2.1-6.6-.4-7.6,1.2-.7,3,0,4.7,1.6.4-.9.7-1.6,1-2.1-2.6-3.2-5.7-4.6-7.7-3.3-2.4,1.5-2.2,6.1.4,10.4,1.8,3.1,4.6,5.3,6.8,5.6-.7-.1-1.3-.5-1.7-1.3Z"/>
        <path class="cls-1" d="M46,50.2c-2.5-1.4-7.2,2.2-10.6,8.2-.2.3-.3.5-.5.8,0,0,.6.7,1.3,1.8,2.5-4,5.7-6.5,7.3-5.6,1.7,1,1,5.4-1.5,9.7-1.2,2.1-2.7,3.9-4.1,5-.4.8-.9,1.4-1.5,1.6,2.5-1,5.5-4.2,7.9-8.2,1.6-2.8,2.7-5.8,3.1-8.2.4-2.6-.1-4.4-1.3-5.1Z"/>
        <path class="cls-6" d="M38.1,65.9c-.3-1.9-1.2-3.6-2-4.9-.7-1.1-1.3-1.8-1.3-1.8-.3.5-.6,1.2-1,2.1-.9,2.3-2,5.6-1.6,8.1,0,.5.2.9.3,1.2.4.8,1,1.2,1.7,1.3,0,0,.1,0,.1,0,.6,0,1.1,0,1.6-.1,0,0,.2,0,.3,0,.6-.2,1.1-.8,1.5-1.6.4-1,.6-2.4.3-4.2ZM35.1,71.4c-2.5,0-1.7-4.1-1.4-5.3.3-1.2,1.4-3.6,1.4-3.6,0,0,1.1,1.8,1.7,3.7.6,1.7.4,5.1-1.7,5.2Z"/>
      </g>
    </g>
    <g id="g9767">
      <g id="g9763">
        <path id="path9761" class="cls-2" d="M142.5,79.2h-22c-2.8,0-5-2.2-5-5v-22c0-2.8,2.2-5,5-5h22c2.8,0,5,2.2,5,5v22c0,2.8-2.2,5-5,5Z"/>
      </g>
      <g>
        <path class="cls-10" d="M127.7,72.9c-1.1-.7-2.2-1.9-3-3.3-1.9-3.2-2.1-6.6-.4-7.6,1.2-.7,3,0,4.7,1.6.4-.9.7-1.6,1-2.1-2.6-3.2-5.7-4.6-7.8-3.3-2.4,1.5-2.2,6.1.4,10.5,1.8,3.1,4.6,5.3,6.9,5.6-.7-.1-1.3-.5-1.7-1.3Z"/>
        <path class="cls-13" d="M141,52.5c-2.5-1.4-7.2,2.2-10.7,8.2-.2.3-.3.6-.5.8,0,0,.6.7,1.3,1.8,2.5-4,5.7-6.5,7.3-5.6,1.7,1,1,5.4-1.5,9.7-1.2,2.1-2.7,3.9-4.1,5-.4.8-.9,1.4-1.5,1.6,2.5-1,5.5-4.2,7.9-8.2,1.6-2.8,2.7-5.8,3.1-8.2.4-2.6-.1-4.4-1.3-5.1Z"/>
        <path class="cls-4" d="M133.1,68.2c-.3-1.9-1.2-3.6-2-4.9-.7-1.1-1.3-1.8-1.3-1.8-.3.5-.6,1.2-1,2.1-.9,2.3-2,5.6-1.6,8.1,0,.5.2.9.3,1.2.4.8,1,1.2,1.7,1.3,0,0,.1,0,.1,0,.6,0,1.1,0,1.6-.1,0,0,.2,0,.3,0,.6-.2,1.1-.8,1.5-1.6.4-1,.6-2.4.3-4.2ZM130.2,73.7c-2.5,0-1.7-4.1-1.4-5.3.3-1.3,1.4-3.6,1.4-3.6,0,0,1.1,1.8,1.7,3.7.6,1.7.4,5.1-1.7,5.2Z"/>
      </g>
    </g>
    <g id="g9889" inkscape:export-filename="../../Desktop/path9.png" inkscape:export-xdpi="888" inkscape:export-ydpi="888">
      <rect id="rect9885" class="cls-10" x="-59.6" y="66.7" width="32" height="32"/>
      <g>
        <path class="cls-8" d="M-48,94.1c-1.3-.9-2.6-2.3-3.6-3.9-2.2-3.7-2.4-7.8-.5-9,1.4-.8,3.5,0,5.5,1.9.4-1,.8-1.9,1.1-2.4-3-3.8-6.7-5.4-9.1-3.9-2.8,1.7-2.6,7.2.4,12.3,2.2,3.6,5.4,6.2,8,6.6-.8-.1-1.5-.6-2-1.6Z"/>
        <path class="cls-13" d="M-32.3,70.1c-2.9-1.7-8.4,2.5-12.5,9.6-.2.3-.4.6-.6,1,0,0,.7.8,1.5,2.1,2.9-4.7,6.7-7.6,8.6-6.6,1.9,1.1,1.1,6.3-1.8,11.4-1.4,2.5-3.1,4.5-4.8,5.9-.4,1-1,1.6-1.7,1.9,2.9-1.2,6.5-4.9,9.2-9.7,1.9-3.3,3.2-6.8,3.6-9.7.4-3-.1-5.1-1.6-6Z"/>
        <path class="cls-12" d="M-41.6,88.5c-.4-2.2-1.4-4.3-2.3-5.7-.8-1.3-1.5-2.1-1.5-2.1-.3.6-.7,1.4-1.1,2.4-1.1,2.7-2.3,6.6-1.9,9.6,0,.6.2,1,.4,1.4.5,1,1.2,1.4,2,1.6,0,0,.1,0,.2,0,.7,0,1.3,0,1.9-.2,0,0,.2,0,.3-.1.7-.3,1.3-.9,1.7-1.9.5-1.2.7-2.8.3-4.9ZM-45.1,95c-3,0-2-4.8-1.6-6.2.4-1.5,1.6-4.2,1.6-4.2,0,0,1.2,2.1,2,4.4.6,2,.5,6-2,6.1Z"/>
      </g>
    </g>
    <g id="g763" inkscape:export-filename="../../Desktop/path9.png" inkscape:export-xdpi="768" inkscape:export-ydpi="768">
      <g id="g761" inkscape:export-filename="./g369.png" inkscape:export-xdpi="3733.2917" inkscape:export-ydpi="3733.2917">
        <rect id="rect757" class="cls-10" x="-101.9" y="7.1" width="32" height="32" rx="-19" ry="-19"/>
        <g>
          <path class="cls-8" d="M-90.4,34.4c-1.3-.9-2.6-2.3-3.6-3.9-2.2-3.7-2.4-7.8-.5-9,1.4-.8,3.5,0,5.5,1.9.4-1,.8-1.9,1.1-2.4-3-3.8-6.7-5.4-9.1-3.9-2.8,1.7-2.6,7.2.4,12.3,2.2,3.6,5.4,6.2,8,6.6-.8-.1-1.5-.6-2-1.6Z"/>
          <path class="cls-13" d="M-74.7,10.4c-2.9-1.7-8.4,2.5-12.5,9.6-.2.3-.4.6-.6,1,0,0,.7.8,1.5,2.1,2.9-4.7,6.7-7.6,8.6-6.6,1.9,1.1,1.1,6.3-1.8,11.4-1.4,2.5-3.1,4.5-4.8,5.9-.4,1-1,1.6-1.7,1.9,2.9-1.2,6.5-4.9,9.2-9.7,1.9-3.3,3.2-6.8,3.6-9.7.4-3-.1-5.1-1.6-6Z"/>
          <path class="cls-12" d="M-84,28.9c-.4-2.2-1.4-4.3-2.3-5.7-.8-1.3-1.5-2.1-1.5-2.1-.3.6-.7,1.4-1.1,2.4-1.1,2.7-2.3,6.6-1.9,9.6,0,.6.2,1,.4,1.4.5,1,1.2,1.4,2,1.6,0,0,.1,0,.2,0,.7,0,1.3,0,1.9-.2,0,0,.2,0,.3-.1.7-.3,1.3-.9,1.7-1.9.5-1.2.7-2.8.3-4.9ZM-87.5,35.4c-3,0-2-4.8-1.6-6.2.4-1.5,1.6-4.2,1.6-4.2,0,0,1.2,2.1,2,4.4.6,2,.5,6-2,6.1Z"/>
        </g>
      </g>
    </g>
    <path id="path2240" class="cls-7" d="M-67-897.5"/>
    <g id="g340" inkscape:export-filename="../../Desktop/path9.png" inkscape:export-xdpi="2496" inkscape:export-ydpi="2496">
      <g id="g369" inkscape:export-filename="./g369.png" inkscape:export-xdpi="3733.2917" inkscape:export-ydpi="3733.2917">
        <rect id="rect336" class="cls-10" x="-108.1" y="55.2" width="32" height="32" rx="-22" ry="-22"/>
        <g>
          <path class="cls-8" d="M-96.5,82.6c-1.3-.9-2.6-2.3-3.6-3.9-2.2-3.7-2.4-7.8-.5-9,1.4-.8,3.5,0,5.5,1.9.4-1,.8-1.9,1.1-2.4-3-3.8-6.7-5.4-9.1-3.9-2.8,1.7-2.6,7.2.4,12.3,2.2,3.6,5.4,6.2,8,6.6-.8-.1-1.5-.6-2-1.6Z"/>
          <path class="cls-13" d="M-80.8,58.6c-2.9-1.7-8.4,2.5-12.5,9.6-.2.3-.4.6-.6,1,0,0,.7.8,1.5,2.1,2.9-4.7,6.7-7.6,8.6-6.6,1.9,1.1,1.1,6.3-1.8,11.4-1.4,2.5-3.1,4.5-4.8,5.9-.4,1-1,1.6-1.7,1.9,2.9-1.2,6.5-4.9,9.2-9.7,1.9-3.3,3.2-6.8,3.6-9.7.4-3-.1-5.1-1.6-6Z"/>
          <path class="cls-12" d="M-90.1,77c-.4-2.2-1.4-4.3-2.3-5.7-.8-1.3-1.5-2.1-1.5-2.1-.3.6-.7,1.4-1.1,2.4-1.1,2.7-2.3,6.6-1.9,9.6,0,.6.2,1,.4,1.4.5,1,1.2,1.4,2,1.6,0,0,.1,0,.2,0,.7,0,1.3,0,1.9-.2,0,0,.2,0,.3-.1.7-.3,1.3-.9,1.7-1.9.5-1.2.7-2.8.3-4.9ZM-93.6,83.5c-3,0-2-4.8-1.6-6.2.4-1.5,1.6-4.2,1.6-4.2,0,0,1.2,2.1,2,4.4.6,2,.5,6-2,6.1Z"/>
        </g>
      </g>
    </g>
    <g>
      <path class="cls-10" d="M-46.2,139.3c-1.3-.9-2.6-2.3-3.6-3.9-2.3-3.8-2.5-7.8-.5-9,1.4-.8,3.6,0,5.6,1.9.4-1,.8-1.9,1.1-2.5-3-3.8-6.8-5.4-9.2-3.9-2.8,1.7-2.6,7.3.4,12.3,2.2,3.6,5.4,6.2,8.1,6.7-.8-.1-1.5-.6-2-1.6Z"/>
      <path class="cls-1" d="M-30.5,115.2c-2.9-1.7-8.5,2.5-12.6,9.7-.2.3-.4.6-.6,1,0,0,.7.8,1.5,2.1,2.9-4.7,6.8-7.7,8.6-6.6,2,1.1,1.1,6.4-1.8,11.4-1.4,2.5-3.2,4.6-4.8,5.9-.4,1-1,1.6-1.7,1.9,3-1.2,6.6-5,9.3-9.7,1.9-3.4,3.2-6.8,3.6-9.7.4-3-.1-5.1-1.6-6Z"/>
      <path class="cls-6" d="M-39.8,133.8c-.4-2.2-1.4-4.3-2.3-5.8-.8-1.3-1.5-2.1-1.5-2.1-.3.6-.7,1.4-1.1,2.5-1.1,2.7-2.3,6.6-1.9,9.6,0,.6.2,1,.4,1.4.5,1,1.2,1.5,2,1.6,0,0,.1,0,.2,0,.7,0,1.4,0,1.9-.2,0,0,.2,0,.3-.1.7-.3,1.3-.9,1.7-1.9.5-1.2.7-2.8.3-5ZM-43.3,140.3c-3,0-2-4.8-1.6-6.3.4-1.5,1.6-4.2,1.6-4.2,0,0,1.3,2.1,2,4.4.7,2,.5,6-2,6.1Z"/>
    </g>
    <g>
      <path class="cls-8" d="M32.7,111.3c-1.3-.9-2.6-2.3-3.6-3.9-2.2-3.7-2.4-7.8-.5-9,1.4-.8,3.5,0,5.5,1.9.4-1,.8-1.9,1.1-2.4-3-3.8-6.7-5.4-9.1-3.9-2.8,1.7-2.6,7.2.4,12.3,2.2,3.6,5.4,6.2,8,6.6-.8-.1-1.5-.6-2-1.6Z"/>
      <path class="cls-13" d="M48.4,87.3c-2.9-1.7-8.4,2.5-12.5,9.6-.2.3-.4.6-.6,1,0,0,.7.8,1.5,2.1,2.9-4.7,6.7-7.6,8.6-6.6,1.9,1.1,1.1,6.3-1.8,11.4-1.4,2.5-3.1,4.5-4.8,5.9-.4,1-1,1.6-1.7,1.9,2.9-1.2,6.5-4.9,9.2-9.7,1.9-3.3,3.2-6.8,3.6-9.7.4-3-.1-5.1-1.6-6Z"/>
      <path class="cls-12" d="M39.1,105.8c-.4-2.2-1.4-4.3-2.3-5.7-.8-1.3-1.5-2.1-1.5-2.1-.3.6-.7,1.4-1.1,2.4-1.1,2.7-2.3,6.6-1.9,9.6,0,.6.2,1,.4,1.4.5,1,1.2,1.4,2,1.6,0,0,.1,0,.2,0,.7,0,1.3,0,1.9-.2,0,0,.2,0,.3-.1.7-.3,1.3-.9,1.7-1.9.5-1.2.7-2.8.3-4.9ZM35.6,112.3c-3,0-2-4.8-1.6-6.2.4-1.5,1.6-4.2,1.6-4.2,0,0,1.2,2.1,2,4.4.6,2,.5,6-2,6.1Z"/>
    </g>
    <g>
      <path class="cls-8" d="M120.3,22.3c-.9-.6-1.8-1.5-2.4-2.6-1.5-2.5-1.7-5.3-.3-6.1.9-.6,2.4,0,3.8,1.3.3-.7.6-1.3.8-1.7-2.1-2.5-4.6-3.6-6.2-2.7-1.9,1.2-1.8,4.9.3,8.3,1.5,2.4,3.6,4.2,5.5,4.5-.5,0-1-.4-1.4-1.1Z"/>
      <path class="cls-13" d="M131,6c-2-1.1-5.7,1.7-8.5,6.5-.1.2-.2.4-.4.7,0,0,.5.6,1,1.4,2-3.2,4.6-5.2,5.8-4.5,1.3.8.8,4.3-1.2,7.7-1,1.7-2.1,3.1-3.2,4-.3.7-.7,1.1-1.2,1.3,2-.8,4.4-3.4,6.3-6.6,1.3-2.3,2.2-4.6,2.5-6.6.3-2,0-3.5-1.1-4Z"/>
      <path class="cls-12" d="M124.7,18.5c-.3-1.5-1-2.9-1.6-3.9-.5-.9-1-1.4-1-1.4-.2.4-.5,1-.8,1.7-.8,1.8-1.6,4.5-1.3,6.5,0,.4.1.7.3.9.3.7.8,1,1.4,1.1,0,0,0,0,.1,0,.4,0,.9,0,1.3-.1,0,0,.2,0,.2,0,.5-.2.9-.6,1.2-1.3.3-.8.5-1.9.2-3.4ZM122.3,22.9c-2,0-1.4-3.2-1.1-4.2.3-1,1.1-2.8,1.1-2.8,0,0,.8,1.4,1.4,3,.4,1.3.3,4.1-1.4,4.1Z"/>
      <path class="cls-8" d="M44.4,9.9h3.9l-5.8,9.4v3.8h-3.3v-3.8l-5.8-9.4h4l3.4,5.2,3.4-5.2Z"/>
      <path class="cls-13" d="M72.1,10c1.1,0,2,0,2.8.2.8.1,1.6.3,2.3.7.7.3,1.3.7,1.7,1.2.4.5.8,1.1,1,1.9.2.8.4,1.6.4,2.7s-.1,1.9-.3,2.6-.5,1.4-.9,1.9c-.4.5-.9.9-1.6,1.2-.7.3-1.4.5-2.3.7s-1.8.2-2.9.2c-2.8,0-4.8-.6-6-1.7-1.3-1.1-1.9-2.8-1.9-5.2s.6-3.7,1.9-4.8c1.3-1,3.2-1.6,5.9-1.6ZM72.3,20.3c1.4,0,2.5-.3,3.3-.9.8-.6,1.2-1.6,1.2-2.9s-.4-2.2-1.2-2.8c-.8-.7-1.9-1-3.3-1s-1.4,0-1.9.3c-.5.2-1,.4-1.3.8-.4.3-.6.7-.8,1.2-.2.5-.3,1-.3,1.6,0,1.2.4,2.1,1.1,2.8.7.7,1.8,1,3.3,1Z"/>
      <path class="cls-13" d="M96.6,23.1h-5.1l-6.6-9.1v9.1h-3.3v-13.1h5.1l6.8,8.9v-8.9h3.2v13.1Z"/>
      <path class="cls-13" d="M97.8,10h13.2v2.9h-9.9v2.2h9.9v2.8h-9.9v2.1h9.9v3.1h-13.2v-13.1Z"/>
      <path class="cls-8" d="M22.9,10h5.8c1.4,0,2.3.3,3,.7,2.1,1.1,1.8,3.5,1.8,3.5h-3.6c0-.4,0-1.1-1.7-1.1h-4.3c-1,0-1.5.4-1.5,1s.8.9,3.9,1.2,7.1.6,7.6,3.4,0,2.1-.5,3-1.8,1.4-3.8,1.4c-2.9,0-5.1,0-7.4,0s-2.2-.2-2.9-1.3-.5-2.8-.5-2.8h3.5c0,1,1.2,1,2.1,1h3.7c1.5,0,1.8-.4,1.8-.9s-.3-.9-1.8-1-4.5-.4-7-.8-3.4-3.2-2.2-5.2,1.7-2.1,3.9-2.1Z"/>
      <path class="cls-8" d="M52.3,10h5.8c1.4,0,2.3.3,3,.7,2.1,1.1,1.8,3.5,1.8,3.5h-3.6c0-.4,0-1.1-1.7-1.1h-4.3c-1,0-1.5.4-1.5,1s.8.9,3.9,1.2,7.1.6,7.6,3.4,0,2.1-.5,3-1.8,1.4-3.8,1.4c-2.9,0-5.1,0-7.4,0s-2.2-.2-2.9-1.3-.5-2.8-.5-2.8h3.5c0,1,1.2,1,2.1,1h3.7c1.5,0,1.8-.4,1.8-.9s-.3-.9-1.8-1-4.5-.4-7-.8-3.4-3.2-2.2-5.2,1.7-2.1,3.9-2.1Z"/>
      <g>
        <path class="cls-8" d="M20.7,28c0-.2,0-.3-.2-.4-.1-.1-.3-.2-.5-.2s-.3,0-.4,0c-.1,0-.2.1-.3.2,0,0,0,.2,0,.3,0,0,0,.2,0,.2,0,0,0,.1.2.2,0,0,.1,0,.2.1,0,0,.2,0,.3,0h.4c.2.1.3.2.4.3.1,0,.3.1.4.2.1.1.2.2.3.4,0,.1.1.3.1.5s0,.5-.2.7c-.1.2-.3.3-.5.5-.2.1-.5.2-.8.2s-.6,0-.8-.2c-.2-.1-.4-.3-.6-.5-.1-.2-.2-.5-.2-.7h.7c0,.2,0,.3.1.4,0,.1.2.2.3.2.1,0,.3,0,.4,0s.3,0,.4,0c.1,0,.2-.1.3-.2,0,0,.1-.2.1-.3,0-.1,0-.2,0-.3,0,0-.1-.1-.3-.2-.1,0-.2,0-.4-.1h-.5c-.3-.2-.6-.4-.8-.6-.2-.2-.3-.4-.3-.8s0-.5.2-.7.3-.3.5-.5c.2-.1.5-.2.8-.2s.5,0,.8.2c.2.1.4.3.5.4.1.2.2.4.2.7h-.7Z"/>
        <path class="cls-8" d="M23.5,31.2c-.3,0-.6,0-.8-.2s-.4-.3-.5-.6-.2-.6-.2-.9,0-.6.2-.9c.1-.3.3-.5.5-.6s.5-.2.8-.2.6,0,.8.2.4.3.5.6c.1.3.2.6.2.9s0,.6-.2.9c-.1.3-.3.5-.5.6s-.5.2-.8.2ZM23.5,30.6c.2,0,.3,0,.4-.1.1,0,.2-.2.2-.4,0-.2,0-.3,0-.5s0-.4,0-.5c0-.2-.1-.3-.2-.4-.1,0-.2-.1-.4-.1s-.3,0-.4.1c-.1,0-.2.2-.2.4,0,.2,0,.3,0,.5s0,.4,0,.5c0,.2.1.3.2.4.1,0,.2.1.4.1Z"/>
        <path class="cls-8" d="M26.3,26.8v4.4h-.7v-4.4h.7Z"/>
        <path class="cls-8" d="M29,29.8v-1.9h.7v3.3h-.7v-.6h0c0,.2-.2.3-.3.5-.2.1-.4.2-.6.2s-.4,0-.5-.1-.3-.2-.4-.4c0-.2-.1-.4-.1-.7v-2.1h.7v2c0,.2,0,.4.2.5.1.1.2.2.4.2s.2,0,.3,0c.1,0,.2-.1.2-.3,0-.1,0-.3,0-.4Z"/>
        <path class="cls-8" d="M31.9,31.2c-.3,0-.6,0-.8-.2-.2-.1-.4-.3-.5-.6-.1-.3-.2-.6-.2-.9s0-.6.2-.9c.1-.3.3-.5.5-.6s.5-.2.8-.2.5,0,.7.1c.2,0,.3.2.5.4s.2.4.2.6h-.7c0-.2,0-.3-.2-.4s-.2-.2-.4-.2-.3,0-.4.1c-.1,0-.2.2-.3.4,0,.2,0,.4,0,.6s0,.4,0,.6c0,.2.1.3.3.4.1,0,.2.1.4.1s.2,0,.3,0c0,0,.2-.1.2-.2,0,0,0-.2.1-.3h.7c0,.2,0,.4-.2.6-.1.2-.3.3-.5.4s-.4.2-.7.2Z"/>
        <path class="cls-8" d="M34.1,27.4c-.1,0-.2,0-.3-.1,0,0-.1-.2-.1-.3s0-.2.1-.3c0,0,.2-.1.3-.1s.2,0,.3.1c0,0,.1.2.1.3s0,.2-.1.3c0,0-.2.1-.3.1ZM33.8,31.2v-3.3h.7v3.3h-.7Z"/>
        <path class="cls-8" d="M36.6,31.2c-.3,0-.6,0-.8-.2s-.4-.3-.5-.6-.2-.6-.2-.9,0-.6.2-.9c.1-.3.3-.5.5-.6s.5-.2.8-.2.6,0,.8.2.4.3.5.6c.1.3.2.6.2.9s0,.6-.2.9c-.1.3-.3.5-.5.6s-.5.2-.8.2ZM36.6,30.6c.2,0,.3,0,.4-.1.1,0,.2-.2.2-.4,0-.2,0-.3,0-.5s0-.4,0-.5c0-.2-.1-.3-.2-.4-.1,0-.2-.1-.4-.1s-.3,0-.4.1c-.1,0-.2.2-.2.4,0,.2,0,.3,0,.5s0,.4,0,.5c0,.2.1.3.2.4.1,0,.2.1.4.1Z"/>
        <path class="cls-8" d="M39.4,29.2v1.9h-.7v-3.3h.7v.6h0c0-.2.2-.3.3-.4.2-.1.3-.2.6-.2s.4,0,.6.1c.2,0,.3.2.4.4,0,.2.1.4.1.7v2.1h-.7v-2c0-.2,0-.4-.2-.5-.1-.1-.3-.2-.4-.2s-.2,0-.3,0c0,0-.2.1-.2.3,0,.1,0,.2,0,.4Z"/>
        <path class="cls-8" d="M44.9,29.5c0-.3,0-.5-.1-.8,0-.2-.2-.4-.3-.5-.1-.1-.3-.2-.5-.3-.2,0-.3,0-.5,0-.3,0-.6,0-.8.2-.2.1-.4.3-.5.6-.1.3-.2.6-.2.9s0,.6.2.9c.1.3.3.5.5.6.2.1.5.2.8.2s.5,0,.6-.1c.2,0,.3-.2.5-.3s.2-.3.2-.5h-.7s0,0-.1.2c0,0-.1.1-.2.1,0,0-.2,0-.3,0-.2,0-.3,0-.4-.1-.1,0-.2-.2-.3-.3,0-.1,0-.3,0-.5h2.2v-.2ZM42.8,29.2c0-.1,0-.3,0-.4,0-.1.1-.2.3-.3.1,0,.2-.1.4-.1s.3,0,.4.1c.1,0,.2.2.2.3,0,.1,0,.2,0,.4h-1.4Z"/>
        <path class="cls-8" d="M48,28.7h-.7s0,0,0-.1c0,0-.1-.1-.2-.2,0,0-.2,0-.3,0s-.3,0-.4.1c-.1,0-.2.2-.2.3,0,0,0,.2,0,.2,0,0,.2.1.3.1h.5c.3.2.5.3.7.4.1.1.2.3.2.6,0,.2,0,.4-.2.5s-.3.3-.5.4c-.2,0-.4.1-.7.1-.4,0-.7,0-.9-.3-.2-.2-.4-.4-.4-.7h.7c0,0,.1.2.2.3.1,0,.2.1.4.1s.3,0,.4-.1c.1,0,.2-.2.2-.3s0-.2-.1-.2c0,0-.2-.1-.3-.1h-.5c-.3-.2-.5-.3-.7-.5-.1-.2-.2-.4-.2-.6,0-.2,0-.4.2-.5s.3-.3.4-.3c.2,0,.4-.1.7-.1.4,0,.6,0,.9.2.2.2.3.4.4.7Z"/>
        <path class="cls-8" d="M50.8,26.8v4.4h-.7v-4.4h.7Z"/>
        <path class="cls-8" d="M52.3,29.2v1.9h-.7v-3.3h.7v.6h0c0-.2.2-.3.3-.4.2-.1.3-.2.6-.2s.4,0,.6.1c.2,0,.3.2.4.4,0,.2.1.4.1.7v2.1h-.7v-2c0-.2,0-.4-.2-.5-.1-.1-.3-.2-.4-.2s-.2,0-.3,0c0,0-.2.1-.2.3,0,.1,0,.2,0,.4Z"/>
        <path class="cls-8" d="M56,27.3c0,0,.2-.1.3-.1s.1,0,.2,0c0,0,0,0,.1,0v-.6c0,0,0,0,0,0,0,0-.2,0-.3,0-.2,0-.3,0-.5.1-.1,0-.3.2-.3.3,0,.1-.1.3-.1.6v.3h-.5v.6h.5v2.7h.7v-2.7h.6v-.6h-.6v-.3c0-.1,0-.2,0-.3Z"/>
        <path class="cls-8" d="M58.4,31.2c-.3,0-.6,0-.8-.2s-.4-.3-.5-.6-.2-.6-.2-.9,0-.6.2-.9c.1-.3.3-.5.5-.6s.5-.2.8-.2.6,0,.8.2.4.3.5.6c.1.3.2.6.2.9s0,.6-.2.9c-.1.3-.3.5-.5.6s-.5.2-.8.2ZM58.4,30.6c.2,0,.3,0,.4-.1.1,0,.2-.2.2-.4,0-.2,0-.3,0-.5s0-.4,0-.5c0-.2-.1-.3-.2-.4-.1,0-.2-.1-.4-.1s-.3,0-.4.1c-.1,0-.2.2-.2.4,0,.2,0,.3,0,.5s0,.4,0,.5c0,.2.1.3.2.4.1,0,.2.1.4.1Z"/>
        <path class="cls-8" d="M60.5,31.2v-3.3h.7v.6h0c0-.2.2-.3.3-.4.1-.1.3-.2.5-.2s0,0,.1,0c0,0,0,0,.1,0v.7s0,0-.1,0-.1,0-.2,0c-.1,0-.3,0-.4,0s-.2.1-.2.3c0,.1,0,.2,0,.4v1.9h-.7Z"/>
        <path class="cls-8" d="M62.8,31.2v-3.3h.7v.6h0c0-.2.2-.3.3-.4s.3-.2.5-.2.4,0,.5.2c.1.1.2.3.3.4h0c0-.2.2-.3.3-.4.2-.1.4-.2.6-.2s.5,0,.7.3c.2.2.3.5.3.8v2.2h-.7v-2.1c0-.2,0-.4-.2-.5-.1,0-.2-.1-.4-.1s-.3,0-.4.2-.1.3-.1.5v2.1h-.7v-2.1c0-.2,0-.3-.1-.4,0-.1-.2-.2-.4-.2s-.2,0-.3,0c0,0-.2.1-.2.2,0,.1,0,.2,0,.4v2h-.7Z"/>
        <path class="cls-8" d="M68.7,31.2c-.2,0-.4,0-.5-.1-.2,0-.3-.2-.4-.3,0-.1-.1-.3-.1-.5s0-.3,0-.5c0-.1.2-.2.3-.3s.2-.1.4-.2c.1,0,.3,0,.4,0,.2,0,.3,0,.4,0,.1,0,.2,0,.2,0s0,0,0-.2h0c0-.2,0-.3-.1-.4,0,0-.2-.1-.4-.1s-.3,0-.4.1-.2.2-.2.3h-.7c0-.3.1-.5.3-.6.1-.1.3-.2.5-.3.2,0,.4-.1.6-.1s.3,0,.4,0c.1,0,.3,0,.4.2.1,0,.2.2.3.3,0,.1.1.3.1.5v2.2h-.7v-.5h0c0,0-.1.2-.2.3,0,0-.2.1-.3.2s-.3,0-.4,0ZM68.9,30.7c.1,0,.3,0,.4,0,.1,0,.2-.1.2-.2,0-.1,0-.2,0-.3v-.4s0,0-.1,0c0,0-.1,0-.2,0,0,0-.1,0-.2,0s-.1,0-.2,0c-.1,0-.2,0-.3,0,0,0-.2,0-.2.1s0,.1,0,.2c0,.1,0,.3.1.3,0,0,.2.1.4.1ZM68.9,27.4l.5-1h.7l-.6,1h-.5Z"/>
        <path class="cls-8" d="M72.6,30.5s0,0,0,0c0,0,0,0-.1,0s-.1,0-.2,0c0,0,0,0-.1-.1,0,0,0-.1,0-.2v-1.7h.6v-.6h-.6v-.8h-.7v.8h-.4v.6h.4v1.8c0,.2,0,.4.1.5,0,.1.2.2.3.3.1,0,.3,0,.5,0,.1,0,.2,0,.3,0,0,0,.1,0,.2,0v-.6Z"/>
        <path class="cls-8" d="M73.6,27.4c-.1,0-.2,0-.3-.1,0,0-.1-.2-.1-.3s0-.2.1-.3c0,0,.2-.1.3-.1s.2,0,.3.1c0,0,.1.2.1.3s0,.2-.1.3c0,0-.2.1-.3.1ZM73.2,31.2v-3.3h.7v3.3h-.7Z"/>
        <path class="cls-8" d="M76.1,31.2c-.3,0-.6,0-.8-.2-.2-.1-.4-.3-.5-.6-.1-.3-.2-.6-.2-.9s0-.6.2-.9c.1-.3.3-.5.5-.6s.5-.2.8-.2.5,0,.7.1c.2,0,.3.2.5.4s.2.4.2.6h-.7c0-.2,0-.3-.2-.4s-.2-.2-.4-.2-.3,0-.4.1c-.1,0-.2.2-.3.4,0,.2,0,.4,0,.6s0,.4,0,.6c0,.2.1.3.3.4.1,0,.2.1.4.1s.2,0,.3,0c0,0,.2-.1.2-.2,0,0,0-.2.1-.3h.7c0,.2,0,.4-.2.6-.1.2-.3.3-.5.4s-.4.2-.7.2Z"/>
        <path class="cls-8" d="M78.9,31.2c-.2,0-.4,0-.5-.1-.2,0-.3-.2-.4-.3,0-.1-.1-.3-.1-.5s0-.3,0-.5c0-.1.2-.2.3-.3s.2-.1.4-.2c.1,0,.3,0,.4,0,.2,0,.3,0,.4,0,.1,0,.2,0,.2,0s0,0,0-.2h0c0-.2,0-.3-.1-.4,0,0-.2-.1-.4-.1s-.3,0-.4.1-.2.2-.2.3h-.7c0-.3.1-.5.3-.6.1-.1.3-.2.5-.3.2,0,.4-.1.6-.1s.3,0,.4,0c.1,0,.3,0,.4.2.1,0,.2.2.3.3,0,.1.1.3.1.5v2.2h-.7v-.5h0c0,0-.1.2-.2.3,0,0-.2.1-.3.2s-.3,0-.4,0ZM79.1,30.7c.1,0,.3,0,.4,0,.1,0,.2-.1.2-.2,0-.1,0-.2,0-.3v-.4s0,0-.1,0c0,0-.1,0-.2,0,0,0-.1,0-.2,0s-.1,0-.2,0c-.1,0-.2,0-.3,0,0,0-.2,0-.2.1s0,.1,0,.2c0,.1,0,.3.1.3,0,0,.2.1.4.1Z"/>
        <path class="cls-8" d="M83.7,28.7h-.7s0,0,0-.1c0,0-.1-.1-.2-.2,0,0-.2,0-.3,0s-.3,0-.4.1c-.1,0-.2.2-.2.3,0,0,0,.2,0,.2,0,0,.2.1.3.1h.5c.3.2.5.3.7.4.1.1.2.3.2.6,0,.2,0,.4-.2.5s-.3.3-.5.4c-.2,0-.4.1-.7.1-.4,0-.7,0-.9-.3-.2-.2-.4-.4-.4-.7h.7c0,0,.1.2.2.3.1,0,.2.1.4.1s.3,0,.4-.1c.1,0,.2-.2.2-.3s0-.2-.1-.2c0,0-.2-.1-.3-.1h-.5c-.3-.2-.5-.3-.7-.5-.1-.2-.2-.4-.2-.6,0-.2,0-.4.2-.5s.3-.3.4-.3c.2,0,.4-.1.7-.1.4,0,.6,0,.9.2.2.2.3.4.4.7Z"/>
      </g>
    </g>
    <g>
      <path class="cls-11" d="M33.2,150.3c-1.3-.9-2.6-2.3-3.6-3.9-2.2-3.7-2.4-7.8-.5-9,1.4-.8,3.5,0,5.5,1.9.4-1,.8-1.9,1.1-2.4-3-3.8-6.7-5.4-9.1-3.9-2.8,1.7-2.6,7.2.4,12.3,2.2,3.6,5.4,6.2,8,6.6-.8-.1-1.5-.6-2-1.6Z"/>
      <path class="cls-9" d="M48.9,126.3c-2.9-1.7-8.4,2.5-12.5,9.6-.2.3-.4.6-.6,1,0,0,.7.8,1.5,2.1,2.9-4.7,6.7-7.6,8.6-6.6,1.9,1.1,1.1,6.3-1.8,11.4-1.4,2.5-3.1,4.5-4.8,5.9-.4,1-1,1.6-1.7,1.9,2.9-1.2,6.5-4.9,9.2-9.7,1.9-3.3,3.2-6.8,3.6-9.7.4-3-.1-5.1-1.6-6Z"/>
      <path class="cls-3" d="M39.6,144.8c-.4-2.2-1.4-4.3-2.3-5.7-.8-1.3-1.5-2.1-1.5-2.1-.3.6-.7,1.4-1.1,2.4-1.1,2.7-2.3,6.6-1.9,9.6,0,.6.2,1,.4,1.4.5,1,1.2,1.4,2,1.6,0,0,.1,0,.2,0,.7,0,1.3,0,1.9-.2,0,0,.2,0,.3-.1.7-.3,1.3-.9,1.7-1.9.5-1.2.7-2.8.3-4.9ZM36.1,151.3c-3,0-2-4.8-1.6-6.2.4-1.5,1.6-4.2,1.6-4.2,0,0,1.2,2.1,2,4.4.6,2,.5,6-2,6.1Z"/>
    </g>
  </g>
</svg>