<?xml version="1.0" encoding="UTF-8"?>
<svg id="Capa_1" data-name="Capa 1" xmlns="http://www.w3.org/2000/svg" version="1.1" viewBox="0 0 26 26">
  <defs>
    <style>
      .cls-1 {
        fill: #333;
      }

      .cls-1, .cls-2, .cls-3 {
        stroke-width: 0px;
      }

      .cls-2 {
        fill: #6d6d6d;
      }

      .cls-3 {
        fill: #e2000f;
      }
    </style>
  </defs>
  <path class="cls-1" d="M8.5,24.4c-1.3-.9-2.6-2.3-3.6-3.9-2.2-3.7-2.4-7.8-.5-9,1.4-.8,3.5,0,5.5,1.9.4-1,.8-1.9,1.1-2.4-3-3.8-6.7-5.4-9.1-3.9-2.8,1.7-2.6,7.2.4,12.3,2.2,3.6,5.4,6.2,8,6.6-.8-.1-1.5-.6-2-1.6Z"/>
  <path class="cls-3" d="M24.2.4c-2.9-1.7-8.4,2.5-12.5,9.6-.2.3-.4.6-.6,1,0,0,.7.8,1.5,2.1,2.9-4.7,6.7-7.6,8.6-6.6,1.9,1.1,1.1,6.3-1.8,11.4-1.4,2.5-3.1,4.5-4.8,5.9-.4,1-1,1.6-1.7,1.9,2.9-1.2,6.5-4.9,9.2-9.7,1.9-3.3,3.2-6.8,3.6-9.7.4-3-.1-5.1-1.6-6Z"/>
  <path class="cls-2" d="M14.9,18.8c-.4-2.2-1.4-4.3-2.3-5.7-.8-1.3-1.5-2.1-1.5-2.1-.3.6-.7,1.4-1.1,2.4-1.1,2.7-2.3,6.6-1.9,9.6,0,.6.2,1,.4,1.4.5,1,1.2,1.4,2,1.6,0,0,.1,0,.2,0,.7,0,1.3,0,1.9-.2,0,0,.2,0,.3-.1.7-.3,1.3-.9,1.7-1.9.5-1.2.7-2.8.3-4.9ZM11.4,25.3c-3,0-2-4.8-1.6-6.2.4-1.5,1.6-4.2,1.6-4.2,0,0,1.2,2.1,2,4.4.6,2,.5,6-2,6.1Z"/>
</svg>