<?xml version="1.0" encoding="UTF-8"?>
<svg id="Capa_1" data-name="Capa 1" xmlns="http://www.w3.org/2000/svg" version="1.1" viewBox="0 0 1000 286.6">
  <defs>
    <style>
      .cls-1 {
        fill: #333;
      }

      .cls-1, .cls-2, .cls-3, .cls-4 {
        stroke-width: 0px;
      }

      .cls-2 {
        fill: #e5e5e5;
        fill-rule: evenodd;
      }

      .cls-3 {
        fill: #6d6d6d;
      }

      .cls-4 {
        fill: #e2000f;
      }
    </style>
  </defs>
  <path class="cls-2" d="M0,0h1000v286.6H0V0Z"/>
  <g>
    <path class="cls-1" d="M666.4,157.3c-3.2-2.2-6.5-5.6-8.9-9.6-5.6-9.3-6.1-19.4-1.1-22.4,3.4-2.1,8.9-.2,13.9,4.7,1.1-2.6,2.1-4.7,2.8-6.1-7.6-9.4-16.8-13.4-22.8-9.8-7,4.3-6.6,18.1,1,30.7,5.4,9,13.4,15.5,20.1,16.6-2-.4-3.8-1.5-5-3.9Z"/>
    <path class="cls-4" d="M705.7,97.3c-7.3-4.2-21.1,6.3-31.3,24-.5.9-.9,1.6-1.4,2.5,0,0,1.7,2,3.7,5.3,7.2-11.7,16.8-19.1,21.4-16.5,4.9,2.8,2.8,15.9-4.5,28.5-3.6,6.2-7.8,11.4-12,14.7-1,2.5-2.6,4.1-4.3,4.8,7.3-2.9,16.3-12.4,23.1-24.2,4.8-8.3,8-16.9,9.1-24.2,1.1-7.5-.3-12.8-3.9-14.9Z"/>
    <path class="cls-3" d="M682.5,143.4c-1-5.6-3.5-10.7-5.8-14.4-2-3.3-3.7-5.3-3.7-5.3-.7,1.4-1.8,3.6-2.8,6.1-2.8,6.8-5.8,16.5-4.8,23.9.2,1.4.5,2.5,1,3.5,1.2,2.5,3,3.6,5,3.9.1,0,.3,0,.4,0,1.6.2,3.4,0,4.8-.4.2,0,.6-.2.8-.3,1.7-.7,3.2-2.3,4.3-4.8,1.2-2.9,1.7-7,.8-12.4ZM673.7,159.7c-7.4.2-5-11.9-4-15.6,1-3.7,4-10.5,4-10.5,0,0,3.1,5.2,5,10.9,1.6,4.9,1.3,15-5,15.2Z"/>
    <path class="cls-1" d="M386.1,111.7h14.5l-21.2,34.9v13.9h-12.1v-13.9l-21.3-34.9h14.7l12.7,19.2,12.7-19.2Z"/>
    <path class="cls-4" d="M488.5,111.7c3.9,0,7.4.2,10.4.7,3,.5,5.8,1.3,8.3,2.4,2.6,1.1,4.6,2.6,6.3,4.4,1.6,1.8,2.9,4.1,3.8,6.9.9,2.8,1.4,6,1.4,9.8s-.4,6.9-1.2,9.6c-.8,2.7-2,5-3.5,6.9-1.5,1.9-3.5,3.4-5.9,4.5-2.5,1.2-5.2,2-8.3,2.5s-6.7.7-10.8.7c-10.2,0-17.7-2-22.3-6.1-4.6-4.1-7-10.4-7-19s2.4-13.8,7.1-17.7c4.7-3.8,12-5.7,21.7-5.7ZM489,149.9c5.2,0,9.2-1.2,12.1-3.5,2.8-2.3,4.3-5.9,4.3-10.6s-1.5-8.1-4.5-10.5c-3-2.4-7-3.6-12.1-3.6s-5,.3-7,.9c-2,.6-3.7,1.6-5,2.8-1.3,1.2-2.3,2.7-2.9,4.5-.6,1.7-1,3.7-1,5.9,0,4.3,1.4,7.7,4.1,10.3,2.7,2.6,6.7,3.9,12,3.9Z"/>
    <path class="cls-4" d="M578.8,160.2h-18.9l-24.5-33.6v33.6h-12.3v-48.2h18.9l25.1,32.7v-32.7h11.8v48.2Z"/>
    <path class="cls-4" d="M583.3,112h48.7v10.6h-36.4v8.1h36.4v10.3h-36.4v7.6h36.4v11.6h-48.7v-48.2Z"/>
    <path class="cls-1" d="M306.9,111.8h21.3c5.2,0,8.4,1.1,11.2,2.6,7.6,4.2,6.7,12.9,6.7,12.9h-13.3c0-1.6,0-4.1-6.4-4.1h-15.8c-3.8,0-5.5,1.3-5.5,3.8s2.8,3.4,14.5,4.5c11.8,1.1,26,2.2,28.2,12.5.6,2.7.3,7.6-2,11s-6.6,5.1-13.9,5.3c-10.6.2-18.8,0-27.2,0s-8.2-.9-10.9-4.7c-2.8-4-1.8-10.2-1.8-10.2h12.8c0,3.7,4.2,3.7,7.8,3.7h13.8c5.4,0,6.7-1.4,6.7-3.5s-1-3.2-6.8-3.7c-6.5-.6-16.6-1.4-25.7-3s-12.5-11.9-8.3-19.3c2.2-3.9,6.3-7.8,14.5-7.8Z"/>
    <path class="cls-1" d="M415.4,111.8h21.3c5.2,0,8.4,1.1,11.2,2.6,7.6,4.2,6.7,12.9,6.7,12.9h-13.3c0-1.6,0-4.1-6.4-4.1h-15.8c-3.8,0-5.5,1.3-5.5,3.8s2.8,3.4,14.5,4.5c11.8,1.1,26,2.2,28.2,12.5.6,2.7.3,7.6-2,11-2.2,3.3-6.6,5.1-13.9,5.3-10.6.2-18.8,0-27.2,0s-8.2-.9-10.9-4.7c-2.8-4-1.8-10.2-1.8-10.2h12.8c0,3.7,4.2,3.7,7.8,3.7h13.8c5.4,0,6.7-1.4,6.7-3.5s-1-3.2-6.8-3.7c-6.5-.6-16.6-1.4-25.7-3s-12.5-11.9-8.3-19.3c2.2-3.9,6.3-7.8,14.5-7.8Z"/>
    <g>
      <path class="cls-1" d="M298.8,178.2c0-.7-.4-1.2-.9-1.6-.5-.4-1.2-.6-2-.6s-1.1,0-1.5.3c-.4.2-.7.4-.9.8-.2.3-.3.7-.3,1.1,0,.3,0,.6.2.9.1.3.3.5.6.6.3.2.5.3.8.4.3.1.6.2.9.3l1.4.4c.6.1,1.1.3,1.7.6.5.2,1,.6,1.4.9.4.4.8.8,1,1.3.2.5.4,1.1.4,1.8s-.2,1.8-.7,2.5c-.5.7-1.1,1.3-2,1.7-.9.4-1.9.6-3.1.6s-2.2-.2-3.1-.6c-.9-.4-1.5-1-2-1.7-.5-.8-.8-1.7-.8-2.7h2.7c0,.6.2,1,.5,1.4.3.4.7.7,1.1.8.5.2,1,.3,1.6.3s1.1,0,1.6-.3c.5-.2.8-.5,1.1-.8.3-.3.4-.8.4-1.2,0-.4-.1-.8-.3-1.1-.2-.3-.5-.5-1-.7-.4-.2-.9-.4-1.4-.5l-1.7-.5c-1.3-.3-2.2-.9-3-1.6-.7-.7-1.1-1.6-1.1-2.8s.2-1.8.7-2.5,1.2-1.3,2-1.7c.8-.4,1.8-.6,2.9-.6s2,.2,2.8.6c.8.4,1.5,1,1.9,1.7.5.7.7,1.5.7,2.4h-2.7Z"/>
      <path class="cls-1" d="M309,190.3c-1.1,0-2.1-.3-2.9-.8s-1.4-1.3-1.9-2.2-.7-2-.7-3.3.2-2.4.7-3.3c.4-.9,1.1-1.7,1.9-2.2s1.8-.8,2.9-.8,2.1.3,2.9.8,1.4,1.3,1.9,2.2c.4.9.7,2.1.7,3.3s-.2,2.4-.7,3.3c-.4.9-1.1,1.7-1.9,2.2s-1.8.8-2.9.8ZM309,188c.6,0,1.1-.2,1.5-.5.4-.4.7-.8.9-1.4.2-.6.3-1.3.3-2s0-1.4-.3-2c-.2-.6-.5-1.1-.9-1.4-.4-.4-.9-.5-1.5-.5s-1.1.2-1.5.5c-.4.4-.7.8-.9,1.4-.2.6-.3,1.3-.3,2s0,1.4.3,2c.2.6.5,1.1.9,1.4.4.4.9.5,1.5.5Z"/>
      <path class="cls-1" d="M319.4,173.8v16.3h-2.7v-16.3h2.7Z"/>
      <path class="cls-1" d="M329.4,184.9v-7.1h2.7v12.2h-2.6v-2.2h-.1c-.3.7-.7,1.2-1.3,1.7-.6.4-1.3.7-2.2.7s-1.4-.2-2-.5-1-.9-1.3-1.6c-.3-.7-.5-1.5-.5-2.5v-7.8h2.7v7.3c0,.8.2,1.4.6,1.8.4.5.9.7,1.6.7s.8-.1,1.2-.3c.4-.2.7-.5.9-.9.2-.4.4-.9.4-1.5Z"/>
      <path class="cls-1" d="M339.9,190.3c-1.1,0-2.1-.3-2.9-.8-.8-.5-1.4-1.3-1.9-2.2-.4-.9-.7-2-.7-3.3s.2-2.3.7-3.3c.4-1,1.1-1.7,1.9-2.2s1.8-.8,2.9-.8,1.7.2,2.5.5c.7.4,1.3.9,1.7,1.5s.7,1.4.7,2.3h-2.6c-.1-.6-.4-1.1-.7-1.5s-.9-.6-1.6-.6-1,.2-1.4.5c-.4.3-.7.8-1,1.4-.2.6-.3,1.3-.3,2.1s.1,1.5.3,2.1c.2.6.5,1.1,1,1.4.4.3.9.5,1.5.5s.8,0,1.1-.2c.3-.2.6-.4.8-.7.2-.3.4-.7.4-1.1h2.6c0,.9-.3,1.6-.7,2.3-.4.7-1,1.2-1.7,1.6s-1.5.6-2.5.6Z"/>
      <path class="cls-1" d="M348.3,176.1c-.4,0-.8-.2-1.1-.5-.3-.3-.5-.7-.5-1.1s.2-.8.5-1.1c.3-.3.7-.5,1.1-.5s.8.2,1.1.5c.3.3.5.7.5,1.1s-.2.8-.5,1.1c-.3.3-.7.5-1.1.5ZM347,190v-12.2h2.7v12.2h-2.7Z"/>
      <path class="cls-1" d="M357.4,190.3c-1.1,0-2.1-.3-2.9-.8s-1.4-1.3-1.9-2.2-.7-2-.7-3.3.2-2.4.7-3.3c.4-.9,1.1-1.7,1.9-2.2s1.8-.8,2.9-.8,2.1.3,2.9.8,1.4,1.3,1.9,2.2c.4.9.7,2.1.7,3.3s-.2,2.4-.7,3.3c-.4.9-1.1,1.7-1.9,2.2s-1.8.8-2.9.8ZM357.4,188c.6,0,1.1-.2,1.5-.5.4-.4.7-.8.9-1.4.2-.6.3-1.3.3-2s0-1.4-.3-2c-.2-.6-.5-1.1-.9-1.4-.4-.4-.9-.5-1.5-.5s-1.1.2-1.5.5c-.4.4-.7.8-.9,1.4-.2.6-.3,1.3-.3,2s0,1.4.3,2c.2.6.5,1.1.9,1.4.4.4.9.5,1.5.5Z"/>
      <path class="cls-1" d="M367.8,182.9v7.2h-2.7v-12.2h2.6v2.1h.1c.3-.7.7-1.2,1.3-1.6.6-.4,1.3-.6,2.1-.6s1.5.2,2.1.5c.6.4,1,.9,1.4,1.6.3.7.5,1.5.5,2.5v7.8h-2.7v-7.3c0-.8-.2-1.5-.6-1.9-.4-.5-.9-.7-1.6-.7s-.9.1-1.3.3c-.4.2-.6.5-.9.9-.2.4-.3.9-.3,1.5Z"/>
      <path class="cls-1" d="M388,183.8c0-1.1-.1-2-.4-2.8-.3-.8-.7-1.4-1.1-1.9-.5-.5-1-.9-1.7-1.1-.6-.2-1.3-.4-2-.4-1.1,0-2,.3-2.8.8-.8.5-1.4,1.3-1.9,2.2-.4,1-.7,2.1-.7,3.3s.2,2.4.7,3.3c.4.9,1.1,1.7,1.9,2.2.8.5,1.8.8,3,.8s1.7-.1,2.4-.4c.7-.3,1.3-.7,1.7-1.2s.7-1.1.9-1.9l-2.5-.3c-.1.3-.3.6-.5.9-.2.2-.5.4-.8.5-.3.1-.7.2-1.1.2-.6,0-1.1-.1-1.5-.4-.4-.3-.8-.7-1-1.2-.2-.5-.3-1.1-.4-1.8h7.9v-.9ZM380.1,182.8c0-.5.1-.9.3-1.3.2-.5.6-.8,1-1.1.4-.3.9-.4,1.4-.4s1,.1,1.4.4c.4.2.7.6.9,1,.2.4.3.9.3,1.5h-5.3Z"/>
      <path class="cls-1" d="M399.3,181l-2.5.3c0-.3-.2-.5-.4-.7-.2-.2-.4-.4-.7-.6-.3-.1-.6-.2-1.1-.2s-1,.1-1.4.4c-.4.3-.6.6-.6,1,0,.4.1.6.4.9.3.2.7.4,1.2.5l1.9.4c1.1.2,1.9.6,2.4,1.2.5.5.8,1.2.8,2.1,0,.8-.2,1.4-.6,2s-1,1-1.7,1.4c-.7.3-1.6.5-2.5.5-1.4,0-2.5-.3-3.4-.9-.9-.6-1.4-1.5-1.5-2.6l2.6-.3c.1.6.4,1,.8,1.2.4.3.9.4,1.5.4s1.2-.1,1.5-.4c.4-.3.6-.6.6-1s-.1-.6-.4-.9c-.3-.2-.6-.4-1.2-.5l-1.9-.4c-1.1-.2-1.9-.7-2.4-1.2-.5-.6-.8-1.3-.8-2.2,0-.8.2-1.4.6-2s.9-1,1.6-1.3c.7-.3,1.5-.5,2.4-.5,1.3,0,2.4.3,3.2.9.8.6,1.2,1.4,1.4,2.5Z"/>
      <path class="cls-1" d="M409.8,173.8v16.3h-2.8v-16.3h2.8Z"/>
      <path class="cls-1" d="M415.4,182.9v7.2h-2.7v-12.2h2.6v2.1h.1c.3-.7.7-1.2,1.3-1.6.6-.4,1.3-.6,2.1-.6s1.5.2,2.1.5c.6.4,1,.9,1.4,1.6.3.7.5,1.5.5,2.5v7.8h-2.7v-7.3c0-.8-.2-1.5-.6-1.9-.4-.5-.9-.7-1.6-.7s-.9.1-1.3.3c-.4.2-.6.5-.9.9-.2.4-.3.9-.3,1.5Z"/>
      <path class="cls-1" d="M429.2,175.8c.2-.3.6-.4,1.1-.4s.4,0,.6,0c.2,0,.3,0,.4.1l.5-2.2c-.2,0-.4-.1-.8-.2-.4,0-.8-.1-1.2-.1-.7,0-1.3.1-1.8.4-.5.3-1,.7-1.3,1.2-.3.5-.5,1.2-.5,2v1.2h-1.7v2.2h1.7v10h2.7v-10h2.4v-2.2h-2.4v-1c0-.5.1-.8.3-1.1Z"/>
      <path class="cls-1" d="M437.9,190.3c-1.1,0-2.1-.3-2.9-.8s-1.4-1.3-1.9-2.2-.7-2-.7-3.3.2-2.4.7-3.3c.4-.9,1.1-1.7,1.9-2.2s1.8-.8,2.9-.8,2.1.3,2.9.8,1.4,1.3,1.9,2.2c.4.9.7,2.1.7,3.3s-.2,2.4-.7,3.3c-.4.9-1.1,1.7-1.9,2.2s-1.8.8-2.9.8ZM437.9,188c.6,0,1.1-.2,1.5-.5.4-.4.7-.8.9-1.4.2-.6.3-1.3.3-2s0-1.4-.3-2c-.2-.6-.5-1.1-.9-1.4-.4-.4-.9-.5-1.5-.5s-1.1.2-1.5.5c-.4.4-.7.8-.9,1.4-.2.6-.3,1.3-.3,2s0,1.4.3,2c.2.6.5,1.1.9,1.4.4.4.9.5,1.5.5Z"/>
      <path class="cls-1" d="M445.6,190v-12.2h2.6v2h.1c.2-.7.6-1.2,1.1-1.6.5-.4,1.1-.6,1.7-.6s.3,0,.5,0c.2,0,.3,0,.5,0v2.6c-.1,0-.3,0-.5-.1s-.5,0-.7,0c-.5,0-.9.1-1.3.3s-.7.5-.9.9c-.2.4-.3.9-.3,1.4v7.2h-2.7Z"/>
      <path class="cls-1" d="M453.9,190v-12.2h2.6v2.1h.1c.2-.7.6-1.2,1.2-1.6s1.2-.6,2-.6,1.4.2,2,.6c.5.4.9.9,1.1,1.6h.1c.3-.7.7-1.2,1.3-1.6.6-.4,1.3-.6,2.1-.6s1.9.4,2.6,1.1c.7.7,1,1.7,1,3.1v8.2h-2.7v-7.7c0-.8-.2-1.3-.6-1.7-.4-.4-.8-.5-1.4-.5s-1.2.2-1.5.6-.5,1-.5,1.7v7.6h-2.6v-7.9c0-.6-.2-1.1-.5-1.5-.4-.4-.8-.6-1.4-.6s-.7.1-1.1.3c-.3.2-.6.5-.8.9-.2.4-.3.8-.3,1.3v7.4h-2.7Z"/>
      <path class="cls-1" d="M476,190.3c-.7,0-1.4-.1-1.9-.4-.6-.3-1-.7-1.4-1.2-.3-.5-.5-1.2-.5-2s.1-1.3.4-1.7c.2-.5.6-.8,1-1.1s.9-.5,1.4-.6c.5-.1,1.1-.2,1.6-.3.7,0,1.2-.1,1.6-.2.4,0,.7-.2.9-.3s.3-.3.3-.6h0c0-.6-.2-1.1-.5-1.4-.3-.3-.8-.5-1.4-.5s-1.2.2-1.6.5-.6.7-.8,1.1l-2.5-.4c.2-.7.5-1.4,1-1.9.5-.5,1-.9,1.7-1.1.7-.3,1.4-.4,2.2-.4s1.1,0,1.6.2c.5.1,1,.4,1.5.7.5.3.8.7,1.1,1.3.3.5.4,1.2.4,2v8.2h-2.6v-1.7h0c-.2.3-.4.7-.7,1-.3.3-.7.5-1.1.7s-1,.3-1.6.3ZM476.7,188.2c.5,0,1-.1,1.4-.3.4-.2.7-.5.9-.9.2-.4.3-.8.3-1.2v-1.4c0,0-.2.1-.4.2-.2,0-.4.1-.7.2-.2,0-.5,0-.7.1s-.5,0-.6,0c-.4,0-.8.2-1.1.3-.3.1-.6.3-.7.6s-.3.5-.3.9c0,.5.2.9.5,1.2.4.3.8.4,1.4.4ZM476.4,176.2l1.7-3.6h2.6l-2.3,3.6h-2Z"/>
      <path class="cls-1" d="M490.1,187.7c0,0-.2,0-.3,0-.1,0-.3,0-.5,0s-.4,0-.6-.1c-.2,0-.3-.2-.4-.4-.1-.2-.2-.5-.2-.9v-6.3h2.3v-2.2h-2.3v-2.9h-2.7v2.9h-1.6v2.2h1.6v6.8c0,.8.1,1.4.5,1.9.3.5.7.9,1.3,1.1.5.2,1.1.4,1.8.3.4,0,.7,0,1-.1.3,0,.5-.1.6-.2l-.5-2.2Z"/>
      <path class="cls-1" d="M494,176.1c-.4,0-.8-.2-1.1-.5-.3-.3-.5-.7-.5-1.1s.2-.8.5-1.1c.3-.3.7-.5,1.1-.5s.8.2,1.1.5c.3.3.5.7.5,1.1s-.2.8-.5,1.1c-.3.3-.7.5-1.1.5ZM492.6,190v-12.2h2.7v12.2h-2.7Z"/>
      <path class="cls-1" d="M503.1,190.3c-1.1,0-2.1-.3-2.9-.8-.8-.5-1.4-1.3-1.9-2.2-.4-.9-.7-2-.7-3.3s.2-2.3.7-3.3c.4-1,1.1-1.7,1.9-2.2s1.8-.8,2.9-.8,1.7.2,2.5.5c.7.4,1.3.9,1.7,1.5s.7,1.4.7,2.3h-2.6c-.1-.6-.4-1.1-.7-1.5s-.9-.6-1.6-.6-1,.2-1.4.5c-.4.3-.7.8-1,1.4-.2.6-.3,1.3-.3,2.1s.1,1.5.3,2.1c.2.6.5,1.1,1,1.4.4.3.9.5,1.5.5s.8,0,1.1-.2c.3-.2.6-.4.8-.7.2-.3.4-.7.4-1.1h2.6c0,.9-.3,1.6-.7,2.3-.4.7-1,1.2-1.7,1.6s-1.5.6-2.5.6Z"/>
      <path class="cls-1" d="M513.5,190.3c-.7,0-1.4-.1-1.9-.4-.6-.3-1-.7-1.4-1.2-.3-.5-.5-1.2-.5-2s.1-1.3.4-1.7c.2-.5.6-.8,1-1.1s.9-.5,1.4-.6c.5-.1,1.1-.2,1.6-.3.7,0,1.2-.1,1.6-.2.4,0,.7-.2.9-.3s.3-.3.3-.6h0c0-.6-.2-1.1-.5-1.4-.3-.3-.8-.5-1.4-.5s-1.2.2-1.6.5-.6.7-.8,1.1l-2.5-.4c.2-.7.5-1.4,1-1.9.5-.5,1-.9,1.7-1.1.7-.3,1.4-.4,2.2-.4s1.1,0,1.6.2c.5.1,1,.4,1.5.7.5.3.8.7,1.1,1.3.3.5.4,1.2.4,2v8.2h-2.6v-1.7h0c-.2.3-.4.7-.7,1-.3.3-.7.5-1.1.7s-1,.3-1.6.3ZM514.1,188.2c.5,0,1-.1,1.4-.3.4-.2.7-.5.9-.9.2-.4.3-.8.3-1.2v-1.4c0,0-.2.1-.4.2-.2,0-.4.1-.7.2-.2,0-.5,0-.7.1s-.5,0-.6,0c-.4,0-.8.2-1.1.3-.3.1-.6.3-.7.6s-.3.5-.3.9c0,.5.2.9.5,1.2.4.3.8.4,1.4.4Z"/>
      <path class="cls-1" d="M531.2,181l-2.5.3c0-.3-.2-.5-.4-.7-.2-.2-.4-.4-.7-.6-.3-.1-.6-.2-1.1-.2s-1,.1-1.4.4c-.4.3-.6.6-.6,1,0,.4.1.6.4.9.3.2.7.4,1.2.5l1.9.4c1.1.2,1.9.6,2.4,1.2.5.5.8,1.2.8,2.1,0,.8-.2,1.4-.6,2s-1,1-1.7,1.4c-.7.3-1.6.5-2.5.5-1.4,0-2.5-.3-3.4-.9-.9-.6-1.4-1.5-1.5-2.6l2.6-.3c.1.6.4,1,.8,1.2.4.3.9.4,1.5.4s1.2-.1,1.5-.4c.4-.3.6-.6.6-1s-.1-.6-.4-.9c-.3-.2-.6-.4-1.2-.5l-1.9-.4c-1.1-.2-1.9-.7-2.4-1.2-.5-.6-.8-1.3-.8-2.2,0-.8.2-1.4.6-2s.9-1,1.6-1.3c.7-.3,1.5-.5,2.4-.5,1.3,0,2.4.3,3.2.9.8.6,1.2,1.4,1.4,2.5Z"/>
    </g>
  </g>
</svg>