<?xml version="1.0" encoding="UTF-8"?>
<svg id="Capa_1" data-name="Capa 1" xmlns="http://www.w3.org/2000/svg" version="1.1" viewBox="0 0 113.7 26">
  <defs>
    <style>
      .cls-1 {
        fill: #333;
      }

      .cls-1, .cls-2, .cls-3 {
        stroke-width: 0px;
      }

      .cls-2 {
        fill: #6d6d6d;
      }

      .cls-3 {
        fill: #e2000f;
      }
    </style>
  </defs>
  <path class="cls-1" d="M101.9,16.8c-.9-.6-1.8-1.5-2.4-2.6-1.5-2.5-1.7-5.2-.3-6.1.9-.6,2.4,0,3.8,1.3.3-.7.6-1.3.8-1.7-2.1-2.5-4.6-3.6-6.2-2.7-1.9,1.2-1.8,4.9.3,8.3,1.5,2.4,3.6,4.2,5.4,4.5-.5,0-1-.4-1.3-1.1Z"/>
  <path class="cls-3" d="M112.5.5c-2-1.1-5.7,1.7-8.5,6.5-.1.2-.2.4-.4.7,0,0,.5.6,1,1.4,2-3.2,4.6-5.2,5.8-4.5,1.3.8.8,4.3-1.2,7.7-1,1.7-2.1,3.1-3.2,4-.3.7-.7,1.1-1.2,1.3,2-.8,4.4-3.4,6.3-6.5,1.3-2.3,2.2-4.6,2.5-6.6.3-2,0-3.5-1.1-4Z"/>
  <path class="cls-2" d="M106.2,13c-.3-1.5-1-2.9-1.6-3.9-.5-.9-1-1.4-1-1.4-.2.4-.5,1-.8,1.7-.8,1.8-1.6,4.5-1.3,6.5,0,.4.1.7.3.9.3.7.8,1,1.3,1.1,0,0,0,0,.1,0,.4,0,.9,0,1.3-.1,0,0,.2,0,.2,0,.5-.2.9-.6,1.2-1.3.3-.8.5-1.9.2-3.3ZM103.8,17.4c-2,0-1.4-3.2-1.1-4.2.3-1,1.1-2.8,1.1-2.8,0,0,.8,1.4,1.4,2.9.4,1.3.3,4.1-1.4,4.1Z"/>
  <path class="cls-1" d="M26,4.4h3.9l-5.7,9.4v3.8h-3.3v-3.8l-5.8-9.4h4l3.4,5.2,3.4-5.2Z"/>
  <path class="cls-3" d="M53.7,4.5c1.1,0,2,0,2.8.2.8.1,1.6.3,2.3.7.7.3,1.3.7,1.7,1.2.4.5.8,1.1,1,1.9.2.8.4,1.6.4,2.7s-.1,1.9-.3,2.6-.5,1.4-.9,1.9c-.4.5-.9.9-1.6,1.2-.7.3-1.4.5-2.3.7s-1.8.2-2.9.2c-2.8,0-4.8-.6-6-1.7-1.3-1.1-1.9-2.8-1.9-5.1s.6-3.7,1.9-4.8c1.3-1,3.2-1.5,5.9-1.5ZM53.8,14.8c1.4,0,2.5-.3,3.3-.9.8-.6,1.2-1.6,1.2-2.9s-.4-2.2-1.2-2.8c-.8-.7-1.9-1-3.3-1s-1.3,0-1.9.3c-.5.2-1,.4-1.3.8-.4.3-.6.7-.8,1.2-.2.5-.3,1-.3,1.6,0,1.2.4,2.1,1.1,2.8.7.7,1.8,1,3.3,1Z"/>
  <path class="cls-3" d="M78.2,17.6h-5.1l-6.6-9.1v9.1h-3.3V4.5h5.1l6.8,8.9V4.5h3.2v13Z"/>
  <path class="cls-3" d="M79.4,4.5h13.2v2.9h-9.9v2.2h9.9v2.8h-9.9v2.1h9.9v3.1h-13.2V4.5Z"/>
  <path class="cls-1" d="M4.6,4.5h5.8c1.4,0,2.3.3,3,.7,2.1,1.1,1.8,3.5,1.8,3.5h-3.6c0-.4,0-1.1-1.7-1.1h-4.3c-1,0-1.5.4-1.5,1s.8.9,3.9,1.2,7,.6,7.6,3.4,0,2.1-.5,3-1.8,1.4-3.8,1.4c-2.9,0-5.1,0-7.4,0s-2.2-.2-2.9-1.3-.5-2.8-.5-2.8h3.5c0,1,1.1,1,2.1,1h3.7c1.5,0,1.8-.4,1.8-.9s-.3-.9-1.8-1-4.5-.4-7-.8S-.5,8.6.6,6.6s1.7-2.1,3.9-2.1Z"/>
  <path class="cls-1" d="M33.9,4.5h5.8c1.4,0,2.3.3,3,.7,2.1,1.1,1.8,3.5,1.8,3.5h-3.6c0-.4,0-1.1-1.7-1.1h-4.3c-1,0-1.5.4-1.5,1s.8.9,3.9,1.2,7,.6,7.6,3.4,0,2.1-.5,3-1.8,1.4-3.8,1.4c-2.9,0-5.1,0-7.4,0s-2.2-.2-2.9-1.3-.5-2.8-.5-2.8h3.5c0,1,1.1,1,2.1,1h3.7c1.5,0,1.8-.4,1.8-.9s-.3-.9-1.8-1-4.5-.4-7-.8-3.4-3.2-2.2-5.2,1.7-2.1,3.9-2.1Z"/>
  <g>
    <path class="cls-1" d="M2.4,22.5c0-.2,0-.3-.2-.4-.1-.1-.3-.2-.5-.2s-.3,0-.4,0c-.1,0-.2.1-.3.2,0,0,0,.2,0,.3,0,0,0,.2,0,.2,0,0,0,.1.2.2,0,0,.1,0,.2.1,0,0,.2,0,.3,0h.4c.2.1.3.2.4.3.1,0,.3.1.4.2.1.1.2.2.3.4,0,.1.1.3.1.5s0,.5-.2.7c-.1.2-.3.3-.5.5-.2.1-.5.2-.8.2s-.6,0-.8-.2c-.2-.1-.4-.3-.6-.5-.1-.2-.2-.5-.2-.7h.7c0,.2,0,.3.1.4,0,.1.2.2.3.2.1,0,.3,0,.4,0s.3,0,.4,0c.1,0,.2-.1.3-.2,0,0,.1-.2.1-.3,0-.1,0-.2,0-.3,0,0-.1-.1-.3-.2-.1,0-.2,0-.4-.1h-.5c-.3-.2-.6-.4-.8-.6-.2-.2-.3-.4-.3-.8s0-.5.2-.7.3-.3.5-.5c.2-.1.5-.2.8-.2s.5,0,.8.2c.2.1.4.3.5.4.1.2.2.4.2.7h-.7Z"/>
    <path class="cls-1" d="M5.1,25.7c-.3,0-.6,0-.8-.2s-.4-.3-.5-.6-.2-.6-.2-.9,0-.6.2-.9c.1-.3.3-.5.5-.6s.5-.2.8-.2.6,0,.8.2.4.3.5.6c.1.3.2.6.2.9s0,.6-.2.9c-.1.3-.3.5-.5.6s-.5.2-.8.2ZM5.1,25.1c.2,0,.3,0,.4-.1.1,0,.2-.2.2-.4,0-.2,0-.3,0-.5s0-.4,0-.5c0-.2-.1-.3-.2-.4-.1,0-.2-.1-.4-.1s-.3,0-.4.1c-.1,0-.2.2-.2.4,0,.2,0,.3,0,.5s0,.4,0,.5c0,.2.1.3.2.4.1,0,.2.1.4.1Z"/>
    <path class="cls-1" d="M8,21.2v4.4h-.7v-4.4h.7Z"/>
    <path class="cls-1" d="M10.7,24.3v-1.9h.7v3.3h-.7v-.6h0c0,.2-.2.3-.3.5-.2.1-.4.2-.6.2s-.4,0-.5-.1-.3-.2-.4-.4c0-.2-.1-.4-.1-.7v-2.1h.7v2c0,.2,0,.4.2.5.1.1.2.2.4.2s.2,0,.3,0c.1,0,.2-.1.2-.3,0-.1,0-.3,0-.4Z"/>
    <path class="cls-1" d="M13.5,25.7c-.3,0-.6,0-.8-.2-.2-.1-.4-.3-.5-.6-.1-.3-.2-.6-.2-.9s0-.6.2-.9c.1-.3.3-.5.5-.6s.5-.2.8-.2.5,0,.7.1c.2,0,.3.2.5.4s.2.4.2.6h-.7c0-.2,0-.3-.2-.4s-.2-.2-.4-.2-.3,0-.4.1c-.1,0-.2.2-.3.4,0,.2,0,.3,0,.6s0,.4,0,.6c0,.2.1.3.3.4.1,0,.2.1.4.1s.2,0,.3,0c0,0,.2-.1.2-.2,0,0,0-.2.1-.3h.7c0,.2,0,.4-.2.6-.1.2-.3.3-.5.4s-.4.2-.7.2Z"/>
    <path class="cls-1" d="M15.8,21.9c-.1,0-.2,0-.3-.1,0,0-.1-.2-.1-.3s0-.2.1-.3c0,0,.2-.1.3-.1s.2,0,.3.1c0,0,.1.2.1.3s0,.2-.1.3c0,0-.2.1-.3.1ZM15.4,25.6v-3.3h.7v3.3h-.7Z"/>
    <path class="cls-1" d="M18.2,25.7c-.3,0-.6,0-.8-.2s-.4-.3-.5-.6-.2-.6-.2-.9,0-.6.2-.9c.1-.3.3-.5.5-.6s.5-.2.8-.2.6,0,.8.2.4.3.5.6c.1.3.2.6.2.9s0,.6-.2.9c-.1.3-.3.5-.5.6s-.5.2-.8.2ZM18.2,25.1c.2,0,.3,0,.4-.1.1,0,.2-.2.2-.4,0-.2,0-.3,0-.5s0-.4,0-.5c0-.2-.1-.3-.2-.4-.1,0-.2-.1-.4-.1s-.3,0-.4.1c-.1,0-.2.2-.2.4,0,.2,0,.3,0,.5s0,.4,0,.5c0,.2.1.3.2.4.1,0,.2.1.4.1Z"/>
    <path class="cls-1" d="M21.1,23.7v1.9h-.7v-3.3h.7v.6h0c0-.2.2-.3.3-.4.2-.1.3-.2.6-.2s.4,0,.6.1c.2,0,.3.2.4.4,0,.2.1.4.1.7v2.1h-.7v-2c0-.2,0-.4-.2-.5-.1-.1-.3-.2-.4-.2s-.2,0-.3,0c0,0-.2.1-.2.3,0,.1,0,.2,0,.4Z"/>
    <path class="cls-1" d="M26.5,24c0-.3,0-.5-.1-.7,0-.2-.2-.4-.3-.5-.1-.1-.3-.2-.5-.3-.2,0-.3,0-.5,0-.3,0-.6,0-.8.2-.2.1-.4.3-.5.6-.1.3-.2.6-.2.9s0,.6.2.9c.1.3.3.5.5.6.2.1.5.2.8.2s.5,0,.6-.1c.2,0,.3-.2.5-.3s.2-.3.2-.5h-.7s0,0-.1.2c0,0-.1.1-.2.1,0,0-.2,0-.3,0-.2,0-.3,0-.4-.1-.1,0-.2-.2-.3-.3,0-.1,0-.3,0-.5h2.1v-.2ZM24.4,23.7c0-.1,0-.3,0-.4,0-.1.1-.2.3-.3.1,0,.2-.1.4-.1s.3,0,.4.1c.1,0,.2.2.2.3,0,.1,0,.2,0,.4h-1.4Z"/>
    <path class="cls-1" d="M29.6,23.2h-.7s0,0,0-.1c0,0-.1-.1-.2-.2,0,0-.2,0-.3,0s-.3,0-.4.1c-.1,0-.2.2-.2.3,0,0,0,.2,0,.2,0,0,.2.1.3.1h.5c.3.2.5.3.7.4.1.1.2.3.2.6,0,.2,0,.4-.2.5s-.3.3-.5.4c-.2,0-.4.1-.7.1-.4,0-.7,0-.9-.3-.2-.2-.4-.4-.4-.7h.7c0,0,.1.2.2.3.1,0,.2.1.4.1s.3,0,.4-.1c.1,0,.2-.2.2-.3s0-.2-.1-.2c0,0-.2-.1-.3-.1h-.5c-.3-.2-.5-.3-.7-.5-.1-.2-.2-.4-.2-.6,0-.2,0-.4.2-.5s.3-.3.4-.3c.2,0,.4-.1.7-.1.4,0,.6,0,.9.2.2.2.3.4.4.7Z"/>
    <path class="cls-1" d="M32.4,21.2v4.4h-.7v-4.4h.7Z"/>
    <path class="cls-1" d="M33.9,23.7v1.9h-.7v-3.3h.7v.6h0c0-.2.2-.3.3-.4.2-.1.3-.2.6-.2s.4,0,.6.1c.2,0,.3.2.4.4,0,.2.1.4.1.7v2.1h-.7v-2c0-.2,0-.4-.2-.5-.1-.1-.3-.2-.4-.2s-.2,0-.3,0c0,0-.2.1-.2.3,0,.1,0,.2,0,.4Z"/>
    <path class="cls-1" d="M37.7,21.8c0,0,.2-.1.3-.1s.1,0,.2,0c0,0,0,0,.1,0v-.6c0,0,0,0,0,0,0,0-.2,0-.3,0-.2,0-.3,0-.5.1-.1,0-.3.2-.3.3,0,.1-.1.3-.1.6v.3h-.5v.6h.5v2.7h.7v-2.7h.6v-.6h-.6v-.3c0-.1,0-.2,0-.3Z"/>
    <path class="cls-1" d="M40,25.7c-.3,0-.6,0-.8-.2s-.4-.3-.5-.6-.2-.6-.2-.9,0-.6.2-.9c.1-.3.3-.5.5-.6s.5-.2.8-.2.6,0,.8.2.4.3.5.6c.1.3.2.6.2.9s0,.6-.2.9c-.1.3-.3.5-.5.6s-.5.2-.8.2ZM40,25.1c.2,0,.3,0,.4-.1.1,0,.2-.2.2-.4,0-.2,0-.3,0-.5s0-.4,0-.5c0-.2-.1-.3-.2-.4-.1,0-.2-.1-.4-.1s-.3,0-.4.1c-.1,0-.2.2-.2.4,0,.2,0,.3,0,.5s0,.4,0,.5c0,.2.1.3.2.4.1,0,.2.1.4.1Z"/>
    <path class="cls-1" d="M42.1,25.6v-3.3h.7v.6h0c0-.2.2-.3.3-.4.1-.1.3-.2.5-.2s0,0,.1,0c0,0,0,0,.1,0v.7s0,0-.1,0-.1,0-.2,0c-.1,0-.3,0-.4,0s-.2.1-.2.3c0,.1,0,.2,0,.4v1.9h-.7Z"/>
    <path class="cls-1" d="M44.4,25.6v-3.3h.7v.6h0c0-.2.2-.3.3-.4s.3-.2.5-.2.4,0,.5.2c.1.1.2.3.3.4h0c0-.2.2-.3.3-.4.2-.1.4-.2.6-.2s.5,0,.7.3c.2.2.3.5.3.8v2.2h-.7v-2.1c0-.2,0-.4-.2-.5-.1,0-.2-.1-.4-.1s-.3,0-.4.2-.1.3-.1.5v2.1h-.7v-2.1c0-.2,0-.3-.1-.4,0-.1-.2-.2-.4-.2s-.2,0-.3,0c0,0-.2.1-.2.2,0,.1,0,.2,0,.4v2h-.7Z"/>
    <path class="cls-1" d="M50.3,25.7c-.2,0-.4,0-.5-.1-.2,0-.3-.2-.4-.3,0-.1-.1-.3-.1-.5s0-.3,0-.5c0-.1.2-.2.3-.3s.2-.1.4-.2c.1,0,.3,0,.4,0,.2,0,.3,0,.4,0,.1,0,.2,0,.2,0s0,0,0-.2h0c0-.2,0-.3-.1-.4,0,0-.2-.1-.4-.1s-.3,0-.4.1-.2.2-.2.3h-.7c0-.3.1-.5.3-.6.1-.1.3-.2.5-.3.2,0,.4-.1.6-.1s.3,0,.4,0c.1,0,.3,0,.4.2.1,0,.2.2.3.3,0,.1.1.3.1.5v2.2h-.7v-.5h0c0,0-.1.2-.2.3,0,0-.2.1-.3.2s-.3,0-.4,0ZM50.5,25.1c.1,0,.3,0,.4,0,.1,0,.2-.1.2-.2,0-.1,0-.2,0-.3v-.4s0,0-.1,0c0,0-.1,0-.2,0,0,0-.1,0-.2,0s-.1,0-.2,0c-.1,0-.2,0-.3,0,0,0-.2,0-.2.1s0,.1,0,.2c0,.1,0,.3.1.3,0,0,.2.1.4.1ZM50.5,21.9l.5-1h.7l-.6,1h-.5Z"/>
    <path class="cls-1" d="M54.2,25s0,0,0,0c0,0,0,0-.1,0s-.1,0-.2,0c0,0,0,0-.1-.1,0,0,0-.1,0-.2v-1.7h.6v-.6h-.6v-.8h-.7v.8h-.4v.6h.4v1.8c0,.2,0,.4.1.5,0,.1.2.2.3.3.1,0,.3,0,.5,0,.1,0,.2,0,.3,0,0,0,.1,0,.2,0v-.6Z"/>
    <path class="cls-1" d="M55.2,21.9c-.1,0-.2,0-.3-.1,0,0-.1-.2-.1-.3s0-.2.1-.3c0,0,.2-.1.3-.1s.2,0,.3.1c0,0,.1.2.1.3s0,.2-.1.3c0,0-.2.1-.3.1ZM54.8,25.6v-3.3h.7v3.3h-.7Z"/>
    <path class="cls-1" d="M57.7,25.7c-.3,0-.6,0-.8-.2-.2-.1-.4-.3-.5-.6-.1-.3-.2-.6-.2-.9s0-.6.2-.9c.1-.3.3-.5.5-.6s.5-.2.8-.2.5,0,.7.1c.2,0,.3.2.5.4s.2.4.2.6h-.7c0-.2,0-.3-.2-.4s-.2-.2-.4-.2-.3,0-.4.1c-.1,0-.2.2-.3.4,0,.2,0,.3,0,.6s0,.4,0,.6c0,.2.1.3.3.4.1,0,.2.1.4.1s.2,0,.3,0c0,0,.2-.1.2-.2,0,0,0-.2.1-.3h.7c0,.2,0,.4-.2.6-.1.2-.3.3-.5.4s-.4.2-.7.2Z"/>
    <path class="cls-1" d="M60.5,25.7c-.2,0-.4,0-.5-.1-.2,0-.3-.2-.4-.3,0-.1-.1-.3-.1-.5s0-.3,0-.5c0-.1.2-.2.3-.3s.2-.1.4-.2c.1,0,.3,0,.4,0,.2,0,.3,0,.4,0,.1,0,.2,0,.2,0s0,0,0-.2h0c0-.2,0-.3-.1-.4,0,0-.2-.1-.4-.1s-.3,0-.4.1-.2.2-.2.3h-.7c0-.3.1-.5.3-.6.1-.1.3-.2.5-.3.2,0,.4-.1.6-.1s.3,0,.4,0c.1,0,.3,0,.4.2.1,0,.2.2.3.3,0,.1.1.3.1.5v2.2h-.7v-.5h0c0,0-.1.2-.2.3,0,0-.2.1-.3.2s-.3,0-.4,0ZM60.7,25.1c.1,0,.3,0,.4,0,.1,0,.2-.1.2-.2,0-.1,0-.2,0-.3v-.4s0,0-.1,0c0,0-.1,0-.2,0,0,0-.1,0-.2,0s-.1,0-.2,0c-.1,0-.2,0-.3,0,0,0-.2,0-.2.1s0,.1,0,.2c0,.1,0,.3.1.3,0,0,.2.1.4.1Z"/>
    <path class="cls-1" d="M65.3,23.2h-.7s0,0,0-.1c0,0-.1-.1-.2-.2,0,0-.2,0-.3,0s-.3,0-.4.1c-.1,0-.2.2-.2.3,0,0,0,.2,0,.2,0,0,.2.1.3.1h.5c.3.2.5.3.7.4.1.1.2.3.2.6,0,.2,0,.4-.2.5s-.3.3-.5.4c-.2,0-.4.1-.7.1-.4,0-.7,0-.9-.3-.2-.2-.4-.4-.4-.7h.7c0,0,.1.2.2.3.1,0,.2.1.4.1s.3,0,.4-.1c.1,0,.2-.2.2-.3s0-.2-.1-.2c0,0-.2-.1-.3-.1h-.5c-.3-.2-.5-.3-.7-.5-.1-.2-.2-.4-.2-.6,0-.2,0-.4.2-.5s.3-.3.4-.3c.2,0,.4-.1.7-.1.4,0,.6,0,.9.2.2.2.3.4.4.7Z"/>
  </g>
</svg>