<?xml version="1.0" encoding="UTF-8"?>
<svg xmlns="http://www.w3.org/2000/svg" version="1.1" xmlns:inkscape="http://www.inkscape.org/namespaces/inkscape" xmlns:sodipodi="http://sodipodi.sourceforge.net/DTD/sodipodi-0.dtd" xmlns:svg="http://www.w3.org/2000/svg" viewBox="0 0 32 32">
  <defs>
    <style>
      .cls-1 {
        fill: #333;
      }

      .cls-1, .cls-2, .cls-3, .cls-4 {
        stroke-width: 0px;
      }

      .cls-2 {
        fill: #fff;
      }

      .cls-3 {
        fill: #6d6d6d;
      }

      .cls-4 {
        fill: #e2000f;
      }
    </style>
  </defs>
  <g id="svg11" inkscape:export-filename="216333102-4d10c195-be66-4fa0-97ca-70a71756b25e.png" inkscape:export-xdpi="3733.2917" inkscape:export-ydpi="3733.2917" inkscape:version="1.2.2 (b0a84865, 2022-12-01)" sodipodi:docname="design.svg">
    <sodipodi:namedview id="namedview13" bordercolor="#000000" borderopacity="0.25" inkscape:current-layer="svg11" inkscape:cx="11.119001" inkscape:cy="90.307984" inkscape:deskcolor="#d1d1d1" inkscape:pagecheckerboard="0" inkscape:pageopacity="0.0" inkscape:showpageshadow="2" inkscape:window-height="847" inkscape:window-maximized="1" inkscape:window-width="1440" inkscape:window-x="0" inkscape:window-y="25" inkscape:zoom="1.8436908" pagecolor="#ffffff" showgrid="false" showguides="true"/>
    <g id="g763" inkscape:export-filename="../../Desktop/path9.png" inkscape:export-xdpi="768" inkscape:export-ydpi="768">
      <g id="g761" inkscape:export-filename="./g369.png" inkscape:export-xdpi="3733.2917" inkscape:export-ydpi="3733.2917">
        <rect id="rect757" class="cls-2" x="0" y="0" width="32" height="32" rx="5" ry="5"/>
        <g>
          <path class="cls-1" d="M11.5,27.4c-1.3-.9-2.6-2.3-3.6-3.9-2.2-3.7-2.4-7.8-.5-9,1.4-.8,3.5,0,5.5,1.9.4-1,.8-1.9,1.1-2.4-3-3.8-6.7-5.4-9.1-3.9-2.8,1.7-2.6,7.2.4,12.3,2.2,3.6,5.4,6.2,8,6.6-.8-.1-1.5-.6-2-1.6Z"/>
          <path class="cls-4" d="M27.2,3.4c-2.9-1.7-8.4,2.5-12.5,9.6-.2.3-.4.6-.6,1,0,0,.7.8,1.5,2.1,2.9-4.7,6.7-7.6,8.6-6.6,1.9,1.1,1.1,6.3-1.8,11.4-1.4,2.5-3.1,4.5-4.8,5.9-.4,1-1,1.6-1.7,1.9,2.9-1.2,6.5-4.9,9.2-9.7,1.9-3.3,3.2-6.8,3.6-9.7.4-3-.1-5.1-1.6-6Z"/>
          <path class="cls-3" d="M17.9,21.8c-.4-2.2-1.4-4.3-2.3-5.7-.8-1.3-1.5-2.1-1.5-2.1-.3.6-.7,1.4-1.1,2.4-1.1,2.7-2.3,6.6-1.9,9.6,0,.6.2,1,.4,1.4.5,1,1.2,1.4,2,1.6,0,0,.1,0,.2,0,.7,0,1.3,0,1.9-.2,0,0,.2,0,.3-.1.7-.3,1.3-.9,1.7-1.9.5-1.2.7-2.8.3-4.9ZM14.4,28.3c-3,0-2-4.8-1.6-6.2.4-1.5,1.6-4.2,1.6-4.2,0,0,1.2,2.1,2,4.4.6,2,.5,6-2,6.1Z"/>
        </g>
      </g>
    </g>
  </g>
</svg>